<svg width="160" height="159" viewBox="0 0 160 159" fill="none" xmlns="http://www.w3.org/2000/svg">
<circle cx="157.157" cy="156.379" r="2.62088" transform="rotate(-180 157.157 156.379)" fill="#E67E22"/>
<circle cx="118.717" cy="156.379" r="2.62088" transform="rotate(-180 118.717 156.379)" fill="#E67E22"/>
<circle cx="80.2778" cy="156.379" r="2.62088" transform="rotate(-180 80.2778 156.379)" fill="#E67E22"/>
<circle cx="41.8383" cy="156.379" r="2.62088" transform="rotate(-180 41.8383 156.379)" fill="#E67E22"/>
<circle cx="3.39865" cy="156.379" r="2.62088" transform="rotate(-180 3.39865 156.379)" fill="#E67E22"/>
<circle cx="157.157" cy="117.94" r="2.62088" transform="rotate(-180 157.157 117.94)" fill="#E67E22"/>
<circle cx="118.717" cy="117.94" r="2.62088" transform="rotate(-180 118.717 117.94)" fill="#E67E22"/>
<circle cx="80.2778" cy="117.94" r="2.62088" transform="rotate(-180 80.2778 117.94)" fill="#E67E22"/>
<circle cx="41.8383" cy="117.94" r="2.62088" transform="rotate(-180 41.8383 117.94)" fill="#E67E22"/>
<circle cx="3.39865" cy="117.94" r="2.62088" transform="rotate(-180 3.39865 117.94)" fill="#E67E22"/>
<circle cx="157.157" cy="79.5" r="2.62088" transform="rotate(-180 157.157 79.5)" fill="#E67E22"/>
<circle cx="118.717" cy="79.5" r="2.62088" transform="rotate(-180 118.717 79.5)" fill="#E67E22"/>
<circle cx="80.2778" cy="79.5" r="2.62088" transform="rotate(-180 80.2778 79.5)" fill="#E67E22"/>
<circle cx="41.8383" cy="79.5" r="2.62088" transform="rotate(-180 41.8383 79.5)" fill="#E67E22"/>
<circle cx="3.39865" cy="79.5" r="2.62088" transform="rotate(-180 3.39865 79.5)" fill="#E67E22"/>
<circle cx="157.157" cy="41.0604" r="2.62088" transform="rotate(-180 157.157 41.0604)" fill="#E67E22"/>
<circle cx="118.717" cy="41.0604" r="2.62088" transform="rotate(-180 118.717 41.0604)" fill="#E67E22"/>
<circle cx="80.2778" cy="41.0604" r="2.62088" transform="rotate(-180 80.2778 41.0604)" fill="#E67E22"/>
<circle cx="41.8383" cy="41.0604" r="2.62088" transform="rotate(-180 41.8383 41.0604)" fill="#E67E22"/>
<circle cx="3.39865" cy="41.0604" r="2.62088" transform="rotate(-180 3.39865 41.0604)" fill="#E67E22"/>
<circle cx="157.157" cy="2.62082" r="2.62088" transform="rotate(-180 157.157 2.62082)" fill="#E67E22"/>
<circle cx="118.717" cy="2.62082" r="2.62088" transform="rotate(-180 118.717 2.62082)" fill="#E67E22"/>
<circle cx="80.2778" cy="2.62082" r="2.62088" transform="rotate(-180 80.2778 2.62082)" fill="#E67E22"/>
<circle cx="41.8383" cy="2.62082" r="2.62088" transform="rotate(-180 41.8383 2.62082)" fill="#E67E22"/>
<circle cx="3.39865" cy="2.62082" r="2.62088" transform="rotate(-180 3.39865 2.62082)" fill="#E67E22"/>
</svg>
