<svg width="132" height="214" viewBox="0 0 132 214" fill="none" xmlns="http://www.w3.org/2000/svg">
<circle cx="128.018" cy="210.24" r="3.52358" transform="rotate(-180 128.018 210.24)" fill="#E67E22"/>
<circle cx="76.3392" cy="210.24" r="3.52358" transform="rotate(-180 76.3392 210.24)" fill="#E67E22"/>
<circle cx="24.66" cy="210.24" r="3.52358" transform="rotate(-180 24.66 210.24)" fill="#E67E22"/>
<circle cx="128.018" cy="158.561" r="3.52358" transform="rotate(-180 128.018 158.561)" fill="#E67E22"/>
<circle cx="76.3392" cy="158.561" r="3.52358" transform="rotate(-180 76.3392 158.561)" fill="#E67E22"/>
<circle cx="24.66" cy="158.561" r="3.52358" transform="rotate(-180 24.66 158.561)" fill="#E67E22"/>
<circle cx="128.018" cy="106.882" r="3.52358" transform="rotate(-180 128.018 106.882)" fill="#E67E22"/>
<circle cx="76.3392" cy="106.882" r="3.52358" transform="rotate(-180 76.3392 106.882)" fill="#E67E22"/>
<circle cx="24.66" cy="106.882" r="3.52358" transform="rotate(-180 24.66 106.882)" fill="#E67E22"/>
<circle cx="128.018" cy="55.2027" r="3.52358" transform="rotate(-180 128.018 55.2027)" fill="#E67E22"/>
<circle cx="76.3392" cy="55.2027" r="3.52358" transform="rotate(-180 76.3392 55.2027)" fill="#E67E22"/>
<circle cx="24.66" cy="55.2027" r="3.52358" transform="rotate(-180 24.66 55.2027)" fill="#E67E22"/>
<circle cx="128.018" cy="3.52354" r="3.52358" transform="rotate(-180 128.018 3.52354)" fill="#E67E22"/>
<circle cx="76.3392" cy="3.52354" r="3.52358" transform="rotate(-180 76.3392 3.52354)" fill="#E67E22"/>
<circle cx="24.66" cy="3.52354" r="3.52358" transform="rotate(-180 24.66 3.52354)" fill="#E67E22"/>
</svg>
